<svg class="diagram-root" style="background: #f5f6f6" xmlns="http://www.w3.org/2000/svg" xmlns:xlink="http://www.w3.org/1999/xlink"><style>.diagram-root { font-family: "Helvetica Neue", sans-serif; font-size: 12px; } .t { overflow: visible; } .t-bg { y: 40; fill: #fff;   } .th { fill: #005aa0;   } .tht { fill: #fff; font-size: 14px;  } .tf { fill: #323c46; overflow: visible; } .tf.pk { fill: #005aa0; font-weight: bold; } .tf.fk { font-weight: bold; } .ty { fill: #adb1b5; font-weight: normal; text-anchor: end; } .r { fill: transparent; stroke: #c3c3c3; stroke-width: 1; } .l { stroke: 1; } .i { fill: #c2c7ce; stroke: #c2c7ce; } .i.ix { fill: #afb3b6; stroke: #000; } .fa { fill: transparent; overflow: visible; } .fa .bg.hover { fill: #f7f7f7; } .c { cy: 12; r: 4; stroke: #d2d2dc; fill: #d2d2dc; } .hr { fill: transparent; stroke: #323c46; stroke-opacity: 0.035; stroke-width: 13; } .dc { stroke: #fa5a3c; fill: #fa5a3c; } .x { stroke: white; stroke-width: 1; } .hl .th { fill: #1b9bff; } .hl .tht {  } .fhl .bg { fill: #e7f4ff; } .fhls .bg {  } .r.hl { stroke: #1b9bff; } .dim { opacity: 0.25; }</style><g class="drawing-wrapper" transform="translate(310.39363636363646, 532.98) scale(1,1)"><g class="rs"><path d="M -1.25 269.5 m -1, 0 a 1,1 0 1,0 2,0 a 1,1 0 1,0 -2,0 M -1.25 269.5 m -0.5, 0 a 0.5,0.5 0 1,0 1,0 a 0.5,0.5 0 1,0 -1,0  M-1.25 269.5 L-1.25 269.5 -13.25 269.5 M -1.25 275.5 m -1, 0 a 1,1 0 1,0 2,0 a 1,1 0 1,0 -2,0 M -1.25 275.5 m -0.5, 0 a 0.5,0.5 0 1,0 1,0 a 0.5,0.5 0 1,0 -1,0  M-1.25 275.5 L-1.25 275.5 -8.25 269.5 -1.25 263.5 M -1.25 263.5 m -1, 0 a 1,1 0 1,0 2,0 a 1,1 0 1,0 -2,0 M -1.25 263.5 m -0.5, 0 a 0.5,0.5 0 1,0 1,0 a 0.5,0.5 0 1,0 -1,0  M-13.25 269.5 Q -35.43 269.5, -57.62 252.97 T -101.99 236.44 M -113.99 236.44 m -1, 0 a 1,1 0 1,0 2,0 a 1,1 0 1,0 -2,0 M -113.99 236.44 m -0.5, 0 a 0.5,0.5 0 1,0 1,0 a 0.5,0.5 0 1,0 -1,0  M-113.99 236.44 L-113.99 236.44 -101.99 236.44 M-107.99 242.44 L-107.99 242.44 -107.99 230.44" id="h2094269083" class="r"></path><path d="M 254.4 429.73 m -1, 0 a 1,1 0 1,0 2,0 a 1,1 0 1,0 -2,0 M 254.4 429.73 m -0.5, 0 a 0.5,0.5 0 1,0 1,0 a 0.5,0.5 0 1,0 -1,0  M254.4 429.73 L254.4 429.73 242.4 429.73 M 254.4 435.73 m -1, 0 a 1,1 0 1,0 2,0 a 1,1 0 1,0 -2,0 M 254.4 435.73 m -0.5, 0 a 0.5,0.5 0 1,0 1,0 a 0.5,0.5 0 1,0 -1,0  M254.4 435.73 L254.4 435.73 247.4 429.73 254.4 423.73 M 254.4 423.73 m -1, 0 a 1,1 0 1,0 2,0 a 1,1 0 1,0 -2,0 M 254.4 423.73 m -0.5, 0 a 0.5,0.5 0 1,0 1,0 a 0.5,0.5 0 1,0 -1,0  M242.4 429.73 Q 210.83 429.73, 179.26 337.12 T 116.11 244.5 M 104.11 244.5 m -1, 0 a 1,1 0 1,0 2,0 a 1,1 0 1,0 -2,0 M 104.11 244.5 m -0.5, 0 a 0.5,0.5 0 1,0 1,0 a 0.5,0.5 0 1,0 -1,0  M104.11 244.5 L104.11 244.5 116.11 244.5 M110.11 250.5 L110.11 250.5 110.11 238.5" id="h1846232057" class="r"></path><path d="M -0.4 -206.57 m -1, 0 a 1,1 0 1,0 2,0 a 1,1 0 1,0 -2,0 M -0.4 -206.57 m -0.5, 0 a 0.5,0.5 0 1,0 1,0 a 0.5,0.5 0 1,0 -1,0  M-0.4 -206.57 L-0.4 -206.57 -12.4 -206.57 M-6.4 -200.57 L-6.4 -200.57 -6.4 -212.57 M-12.4 -206.57 Q -38.58 -206.57, -64.76 -139.3 T -117.11000000000001 -72.03 M -129.11 -72.03 m -1, 0 a 1,1 0 1,0 2,0 a 1,1 0 1,0 -2,0 M -129.11 -72.03 m -0.5, 0 a 0.5,0.5 0 1,0 1,0 a 0.5,0.5 0 1,0 -1,0  M-129.11 -72.03 L-129.11 -72.03 -117.11000000000001 -72.03 M-123.11000000000001 -66.03 L-123.11000000000001 -66.03 -123.11000000000001 -78.03" id="h1087916716" class="r"></path><path d="M -1.82 104.4 m -1, 0 a 1,1 0 1,0 2,0 a 1,1 0 1,0 -2,0 M -1.82 104.4 m -0.5, 0 a 0.5,0.5 0 1,0 1,0 a 0.5,0.5 0 1,0 -1,0  M-1.82 104.4 L-1.82 104.4 -13.82 104.4 M-7.82 110.4 L-7.82 110.4 -7.82 98.4 M-13.82 104.4 Q -39.64 104.4, -65.46 16.19 T -117.11000000000001 -72.03 M -129.11 -72.03 m -1, 0 a 1,1 0 1,0 2,0 a 1,1 0 1,0 -2,0 M -129.11 -72.03 m -0.5, 0 a 0.5,0.5 0 1,0 1,0 a 0.5,0.5 0 1,0 -1,0  M-129.11 -72.03 L-129.11 -72.03 -117.11000000000001 -72.03 M-123.11000000000001 -66.03 L-123.11000000000001 -66.03 -123.11000000000001 -78.03" id="h954664405" class="r"></path><path d="M 115.56 129.4 m -1, 0 a 1,1 0 1,0 2,0 a 1,1 0 1,0 -2,0 M 115.56 129.4 m -0.5, 0 a 0.5,0.5 0 1,0 1,0 a 0.5,0.5 0 1,0 -1,0  M115.56 129.4 L115.56 129.4 127.56 129.4 M121.56 135.4 L121.56 135.4 121.56 123.4 M127.56 129.4 Q 156.27 129.4, 184.98 267.07 T 242.4 404.73 M 254.4 404.73 m -1, 0 a 1,1 0 1,0 2,0 a 1,1 0 1,0 -2,0 M 254.4 404.73 m -0.5, 0 a 0.5,0.5 0 1,0 1,0 a 0.5,0.5 0 1,0 -1,0  M254.4 404.73 L254.4 404.73 242.4 404.73 M 254.4 410.73 m -1, 0 a 1,1 0 1,0 2,0 a 1,1 0 1,0 -2,0 M 254.4 410.73 m -0.5, 0 a 0.5,0.5 0 1,0 1,0 a 0.5,0.5 0 1,0 -1,0  M254.4 410.73 L254.4 410.73 247.4 404.73 254.4 398.73 M 254.4 398.73 m -1, 0 a 1,1 0 1,0 2,0 a 1,1 0 1,0 -2,0 M 254.4 398.73 m -0.5, 0 a 0.5,0.5 0 1,0 1,0 a 0.5,0.5 0 1,0 -1,0 " id="h413980033" class="r"></path><path d="M -10.14 -72.44 m -1, 0 a 1,1 0 1,0 2,0 a 1,1 0 1,0 -2,0 M -10.14 -72.44 m -0.5, 0 a 0.5,0.5 0 1,0 1,0 a 0.5,0.5 0 1,0 -1,0  M-10.14 -72.44 L-10.14 -72.44 -22.14 -72.44 M-16.14 -66.44 L-16.14 -66.44 -16.14 -78.44 M-22.14 -72.44 Q -45.88 -72.44, -69.62 -72.23 T -117.11000000000001 -72.03 M -129.11 -72.03 m -1, 0 a 1,1 0 1,0 2,0 a 1,1 0 1,0 -2,0 M -129.11 -72.03 m -0.5, 0 a 0.5,0.5 0 1,0 1,0 a 0.5,0.5 0 1,0 -1,0  M-129.11 -72.03 L-129.11 -72.03 -117.11000000000001 -72.03 M-123.11000000000001 -66.03 L-123.11000000000001 -66.03 -123.11000000000001 -78.03" id="h1068983576" class="r"></path><path d="M 111.91 -47.44 m -1, 0 a 1,1 0 1,0 2,0 a 1,1 0 1,0 -2,0 M 111.91 -47.44 m -0.5, 0 a 0.5,0.5 0 1,0 1,0 a 0.5,0.5 0 1,0 -1,0  M111.91 -47.44 L111.91 -47.44 123.91 -47.44 M117.91 -41.44 L117.91 -41.44 117.91 -53.44 M123.91 -47.44 Q 153.54 -47.44, 183.16 178.65 T 242.4 404.73 M 254.4 404.73 m -1, 0 a 1,1 0 1,0 2,0 a 1,1 0 1,0 -2,0 M 254.4 404.73 m -0.5, 0 a 0.5,0.5 0 1,0 1,0 a 0.5,0.5 0 1,0 -1,0  M254.4 404.73 L254.4 404.73 242.4 404.73 M248.4 410.73 L248.4 410.73 248.4 398.73" id="h4032482233" class="r"></path><path d="M 111.91 -22.439999999999998 m -1, 0 a 1,1 0 1,0 2,0 a 1,1 0 1,0 -2,0 M 111.91 -22.439999999999998 m -0.5, 0 a 0.5,0.5 0 1,0 1,0 a 0.5,0.5 0 1,0 -1,0  M111.91 -22.439999999999998 L111.91 -22.439999999999998 123.91 -22.439999999999998 M117.91 -16.439999999999998 L117.91 -16.439999999999998 117.91 -28.439999999999998 M123.91 -22.439999999999998 C 173.91 -22.439999999999998, 176.214 -231.57, 120.07 -231.57 M 108.07 -231.57 m -1, 0 a 1,1 0 1,0 2,0 a 1,1 0 1,0 -2,0 M 108.07 -231.57 m -0.5, 0 a 0.5,0.5 0 1,0 1,0 a 0.5,0.5 0 1,0 -1,0  M108.07 -231.57 L108.07 -231.57 120.07 -231.57 M114.07 -225.57 L114.07 -225.57 114.07 -237.57" id="h970128436" class="r"></path><path d="M -8.04 -420.98 m -1, 0 a 1,1 0 1,0 2,0 a 1,1 0 1,0 -2,0 M -8.04 -420.98 m -0.5, 0 a 0.5,0.5 0 1,0 1,0 a 0.5,0.5 0 1,0 -1,0  M-8.04 -420.98 L-8.04 -420.98 -20.04 -420.98 M-14.04 -414.98 L-14.04 -414.98 -14.04 -426.98 M-20.04 -420.98 Q -40.42 -420.98, -60.8 -431.72 T -101.57 -442.47 M -113.57 -442.47 m -1, 0 a 1,1 0 1,0 2,0 a 1,1 0 1,0 -2,0 M -113.57 -442.47 m -0.5, 0 a 0.5,0.5 0 1,0 1,0 a 0.5,0.5 0 1,0 -1,0  M-113.57 -442.47 L-113.57 -442.47 -101.57 -442.47 M-107.57 -436.47 L-107.57 -436.47 -107.57 -448.47" id="h267534561" class="r"></path><path d="M 112.67 -395.98 m -1, 0 a 1,1 0 1,0 2,0 a 1,1 0 1,0 -2,0 M 112.67 -395.98 m -0.5, 0 a 0.5,0.5 0 1,0 1,0 a 0.5,0.5 0 1,0 -1,0  M112.67 -395.98 L112.67 -395.98 124.67 -395.98 M118.67 -389.98 L118.67 -389.98 118.67 -401.98 M124.67 -395.98 Q 155.12 -395.98, 185.57 -418.88 T 246.47000000000003 -441.78 M 258.47 -441.78 m -1, 0 a 1,1 0 1,0 2,0 a 1,1 0 1,0 -2,0 M 258.47 -441.78 m -0.5, 0 a 0.5,0.5 0 1,0 1,0 a 0.5,0.5 0 1,0 -1,0  M258.47 -441.78 L258.47 -441.78 246.47000000000003 -441.78 M252.47000000000003 -435.78 L252.47000000000003 -435.78 252.47000000000003 -447.78" id="h1617742524" class="r"></path><path d="M 258.47 -416.78 m -1, 0 a 1,1 0 1,0 2,0 a 1,1 0 1,0 -2,0 M 258.47 -416.78 m -0.5, 0 a 0.5,0.5 0 1,0 1,0 a 0.5,0.5 0 1,0 -1,0  M258.47 -416.78 L258.47 -416.78 246.47000000000003 -416.78 M 258.47 -410.78 m -1, 0 a 1,1 0 1,0 2,0 a 1,1 0 1,0 -2,0 M 258.47 -410.78 m -0.5, 0 a 0.5,0.5 0 1,0 1,0 a 0.5,0.5 0 1,0 -1,0  M258.47 -410.78 L258.47 -410.78 251.47000000000003 -416.78 258.47 -422.78 M 258.47 -422.78 m -1, 0 a 1,1 0 1,0 2,0 a 1,1 0 1,0 -2,0 M 258.47 -422.78 m -0.5, 0 a 0.5,0.5 0 1,0 1,0 a 0.5,0.5 0 1,0 -1,0  M246.47000000000003 -416.78 Q 215.83 -416.78, 185.19 -257.11 T 123.91 -97.44 M 111.91 -97.44 m -1, 0 a 1,1 0 1,0 2,0 a 1,1 0 1,0 -2,0 M 111.91 -97.44 m -0.5, 0 a 0.5,0.5 0 1,0 1,0 a 0.5,0.5 0 1,0 -1,0  M111.91 -97.44 L111.91 -97.44 123.91 -97.44 M117.91 -91.44 L117.91 -91.44 117.91 -103.44" id="h2451393736" class="r"></path><path d="M 246.72 200.93 m -1, 0 a 1,1 0 1,0 2,0 a 1,1 0 1,0 -2,0 M 246.72 200.93 m -0.5, 0 a 0.5,0.5 0 1,0 1,0 a 0.5,0.5 0 1,0 -1,0  M246.72 200.93 L246.72 200.93 234.72 200.93 M 246.72 206.93 m -1, 0 a 1,1 0 1,0 2,0 a 1,1 0 1,0 -2,0 M 246.72 206.93 m -0.5, 0 a 0.5,0.5 0 1,0 1,0 a 0.5,0.5 0 1,0 -1,0  M246.72 206.93 L246.72 206.93 239.72 200.93 246.72 194.93 M 246.72 194.93 m -1, 0 a 1,1 0 1,0 2,0 a 1,1 0 1,0 -2,0 M 246.72 194.93 m -0.5, 0 a 0.5,0.5 0 1,0 1,0 a 0.5,0.5 0 1,0 -1,0  M234.72 200.93 Q 207.93 200.93, 181.14 140.17 T 127.56 79.4 M 115.56 79.4 m -1, 0 a 1,1 0 1,0 2,0 a 1,1 0 1,0 -2,0 M 115.56 79.4 m -0.5, 0 a 0.5,0.5 0 1,0 1,0 a 0.5,0.5 0 1,0 -1,0  M115.56 79.4 L115.56 79.4 127.56 79.4 M121.56 85.4 L121.56 85.4 121.56 73.4" id="h50452479" class="r"></path><path d="M 412.12 225.93 m -1, 0 a 1,1 0 1,0 2,0 a 1,1 0 1,0 -2,0 M 412.12 225.93 m -0.5, 0 a 0.5,0.5 0 1,0 1,0 a 0.5,0.5 0 1,0 -1,0  M412.12 225.93 L412.12 225.93 424.12 225.93 M418.12 231.93 L418.12 231.93 418.12 219.93 M424.12 225.93 C 474.12 225.93, 476.706 404.73, 419.81 404.73 M 407.81 404.73 m -1, 0 a 1,1 0 1,0 2,0 a 1,1 0 1,0 -2,0 M 407.81 404.73 m -0.5, 0 a 0.5,0.5 0 1,0 1,0 a 0.5,0.5 0 1,0 -1,0  M407.81 404.73 L407.81 404.73 419.81 404.73 M413.81 410.73 L413.81 410.73 413.81 398.73" id="h2078037820" class="r"></path><path d="M 512.11 -418.73 m -1, 0 a 1,1 0 1,0 2,0 a 1,1 0 1,0 -2,0 M 512.11 -418.73 m -0.5, 0 a 0.5,0.5 0 1,0 1,0 a 0.5,0.5 0 1,0 -1,0  M512.11 -418.73 L512.11 -418.73 500.11 -418.73 M506.11 -412.73 L506.11 -412.73 506.11 -424.73 M500.11 -418.73 Q 477.55 -418.73, 454.98 -430.25 T 409.85 -441.78 M 397.85 -441.78 m -1, 0 a 1,1 0 1,0 2,0 a 1,1 0 1,0 -2,0 M 397.85 -441.78 m -0.5, 0 a 0.5,0.5 0 1,0 1,0 a 0.5,0.5 0 1,0 -1,0  M397.85 -441.78 L397.85 -441.78 409.85 -441.78 M403.85 -435.78 L403.85 -435.78 403.85 -447.78" id="h790711350" class="r"></path><path d="M 512.11 -393.73 m -1, 0 a 1,1 0 1,0 2,0 a 1,1 0 1,0 -2,0 M 512.11 -393.73 m -0.5, 0 a 0.5,0.5 0 1,0 1,0 a 0.5,0.5 0 1,0 -1,0  M512.11 -393.73 L512.11 -393.73 500.11 -393.73 M506.11 -387.73 L506.11 -387.73 506.11 -399.73 M500.11 -393.73 Q 481.12 -393.73, 462.12 -108.9 T 424.12 175.93 M 412.12 175.93 m -1, 0 a 1,1 0 1,0 2,0 a 1,1 0 1,0 -2,0 M 412.12 175.93 m -0.5, 0 a 0.5,0.5 0 1,0 1,0 a 0.5,0.5 0 1,0 -1,0  M412.12 175.93 L412.12 175.93 424.12 175.93 M418.12 181.93 L418.12 181.93 418.12 169.93" id="h742359632" class="r"></path><path d="M 518.71 271.08000000000004 m -1, 0 a 1,1 0 1,0 2,0 a 1,1 0 1,0 -2,0 M 518.71 271.08000000000004 m -0.5, 0 a 0.5,0.5 0 1,0 1,0 a 0.5,0.5 0 1,0 -1,0  M518.71 271.08000000000004 L518.71 271.08000000000004 515.71 271.08000000000004 M 512.71 271.08000000000004 m -3, 0 a 3,3 0 1,0 6,0 a 3,3 0 1,0 -6,0 M509.71000000000004 271.08000000000004 L509.71000000000004 271.08000000000004 506.71000000000004 271.08000000000004 M506.71000000000004 271.08000000000004 Q 485.81 271.08000000000004, 464.9 73.72 T 423.08 -123.65 M 411.08 -123.65 m -1, 0 a 1,1 0 1,0 2,0 a 1,1 0 1,0 -2,0 M 411.08 -123.65 m -0.5, 0 a 0.5,0.5 0 1,0 1,0 a 0.5,0.5 0 1,0 -1,0  M411.08 -123.65 L411.08 -123.65 423.08 -123.65 M417.08 -117.65 L417.08 -117.65 417.08 -129.65" id="h3756453759" class="r"></path><path d="M 247.03 -98.65 m -1, 0 a 1,1 0 1,0 2,0 a 1,1 0 1,0 -2,0 M 247.03 -98.65 m -0.5, 0 a 0.5,0.5 0 1,0 1,0 a 0.5,0.5 0 1,0 -1,0  M247.03 -98.65 L247.03 -98.65 235.03 -98.65 M 247.03 -92.65 m -1, 0 a 1,1 0 1,0 2,0 a 1,1 0 1,0 -2,0 M 247.03 -92.65 m -0.5, 0 a 0.5,0.5 0 1,0 1,0 a 0.5,0.5 0 1,0 -1,0  M247.03 -92.65 L247.03 -92.65 240.03 -98.65 247.03 -104.65 M 247.03 -104.65 m -1, 0 a 1,1 0 1,0 2,0 a 1,1 0 1,0 -2,0 M 247.03 -104.65 m -0.5, 0 a 0.5,0.5 0 1,0 1,0 a 0.5,0.5 0 1,0 -1,0  M235.03 -98.65 Q 208.17 -98.65, 181.3 -9.62 T 127.56 79.4 M 115.56 79.4 m -1, 0 a 1,1 0 1,0 2,0 a 1,1 0 1,0 -2,0 M 115.56 79.4 m -0.5, 0 a 0.5,0.5 0 1,0 1,0 a 0.5,0.5 0 1,0 -1,0  M115.56 79.4 L115.56 79.4 127.56 79.4 M121.56 85.4 L121.56 85.4 121.56 73.4" id="h2195587637" class="r"></path><path d="M 514.24 -226.33999999999997 m -1, 0 a 1,1 0 1,0 2,0 a 1,1 0 1,0 -2,0 M 514.24 -226.33999999999997 m -0.5, 0 a 0.5,0.5 0 1,0 1,0 a 0.5,0.5 0 1,0 -1,0  M514.24 -226.33999999999997 L514.24 -226.33999999999997 502.24 -226.33999999999997 M 514.24 -220.33999999999997 m -1, 0 a 1,1 0 1,0 2,0 a 1,1 0 1,0 -2,0 M 514.24 -220.33999999999997 m -0.5, 0 a 0.5,0.5 0 1,0 1,0 a 0.5,0.5 0 1,0 -1,0  M514.24 -220.33999999999997 L514.24 -220.33999999999997 507.24 -226.33999999999997 514.24 -232.33999999999997 M 514.24 -232.33999999999997 m -1, 0 a 1,1 0 1,0 2,0 a 1,1 0 1,0 -2,0 M 514.24 -232.33999999999997 m -0.5, 0 a 0.5,0.5 0 1,0 1,0 a 0.5,0.5 0 1,0 -1,0  M502.24 -226.33999999999997 Q 406.7 -226.33999999999997, 311.15 -228.95 T 120.07 -231.57 M 108.07 -231.57 m -1, 0 a 1,1 0 1,0 2,0 a 1,1 0 1,0 -2,0 M 108.07 -231.57 m -0.5, 0 a 0.5,0.5 0 1,0 1,0 a 0.5,0.5 0 1,0 -1,0  M108.07 -231.57 L108.07 -231.57 120.07 -231.57 M114.07 -225.57 L114.07 -225.57 114.07 -237.57" id="h697299245" class="r"></path><path d="M 565.3 50.43 m -1, 0 a 1,1 0 1,0 2,0 a 1,1 0 1,0 -2,0 M 565.3 50.43 m -0.5, 0 a 0.5,0.5 0 1,0 1,0 a 0.5,0.5 0 1,0 -1,0  M565.3 50.43 L565.3 50.43 553.3 50.43 M559.3 56.43 L559.3 56.43 559.3 44.43 M553.3 50.43 Q 521.01 50.43, 488.71 113.18 T 424.12 175.93 M 412.12 175.93 m -1, 0 a 1,1 0 1,0 2,0 a 1,1 0 1,0 -2,0 M 412.12 175.93 m -0.5, 0 a 0.5,0.5 0 1,0 1,0 a 0.5,0.5 0 1,0 -1,0  M412.12 175.93 L412.12 175.93 424.12 175.93 M418.12 181.93 L418.12 181.93 418.12 169.93" id="h3157626544" class="r"></path><path d="M 689.34 75.43 m -1, 0 a 1,1 0 1,0 2,0 a 1,1 0 1,0 -2,0 M 689.34 75.43 m -0.5, 0 a 0.5,0.5 0 1,0 1,0 a 0.5,0.5 0 1,0 -1,0  M689.34 75.43 L689.34 75.43 701.34 75.43 M695.34 81.43 L695.34 81.43 695.34 69.43 M701.34 75.43 C 751.34 75.43, 752.474 246.08, 699.45 246.08 M 687.45 246.08 m -1, 0 a 1,1 0 1,0 2,0 a 1,1 0 1,0 -2,0 M 687.45 246.08 m -0.5, 0 a 0.5,0.5 0 1,0 1,0 a 0.5,0.5 0 1,0 -1,0  M687.45 246.08 L687.45 246.08 699.45 246.08 M693.45 252.08 L693.45 252.08 693.45 240.08" id="h2302381730" class="r"></path><path d="M 565.3 100.43 m -1, 0 a 1,1 0 1,0 2,0 a 1,1 0 1,0 -2,0 M 565.3 100.43 m -0.5, 0 a 0.5,0.5 0 1,0 1,0 a 0.5,0.5 0 1,0 -1,0  M565.3 100.43 L565.3 100.43 553.3 100.43 M559.3 106.43 L559.3 106.43 559.3 94.43 M553.3 100.43 Q 446.87 100.43, 340.43 89.92 T 127.56 79.4 M 115.56 79.4 m -1, 0 a 1,1 0 1,0 2,0 a 1,1 0 1,0 -2,0 M 115.56 79.4 m -0.5, 0 a 0.5,0.5 0 1,0 1,0 a 0.5,0.5 0 1,0 -1,0  M115.56 79.4 L115.56 79.4 127.56 79.4 M121.56 85.4 L121.56 85.4 121.56 73.4" id="h2224790451" class="r"></path><path d="M 689.34 125.43 m -1, 0 a 1,1 0 1,0 2,0 a 1,1 0 1,0 -2,0 M 689.34 125.43 m -0.5, 0 a 0.5,0.5 0 1,0 1,0 a 0.5,0.5 0 1,0 -1,0  M689.34 125.43 L689.34 125.43 701.34 125.43 M695.34 131.43 L695.34 131.43 695.34 119.43 M701.34 125.43 C 751.34 125.43, 756.7520000000001 -251.33999999999997, 692.32 -251.33999999999997 M 680.32 -251.33999999999997 m -1, 0 a 1,1 0 1,0 2,0 a 1,1 0 1,0 -2,0 M 680.32 -251.33999999999997 m -0.5, 0 a 0.5,0.5 0 1,0 1,0 a 0.5,0.5 0 1,0 -1,0  M680.32 -251.33999999999997 L680.32 -251.33999999999997 692.32 -251.33999999999997 M686.32 -245.33999999999997 L686.32 -245.33999999999997 686.32 -257.34" id="h573708462" class="r"></path></g><g class="hrs"></g><g class="ts"><svg width="105.36" height="125" x="-1.25" y="187.5" id="h2861865735" class="t"><rect height="40" width="105.36" class="th"></rect><text x="13" y="25" class="tht">City</text><rect height="85" width="105.36" class="t-bg"></rect><text x="13" y="61" class="tf pk">id<tspan x="92.36" class="ty">int</tspan></text><path d="M7,14A2,2 0 0,1 5,12A2,2 0 0,1 7,10A2,2 0 0,1 9,12A2,2 0 0,1 7,14M12.65,10C11.83,7.67 9.61,6 7, 6A6, 6 0 0, 0 1, 12A6, 6 0 0, 0 7, 18C9.61, 18 11.83, 16.33 12.65, 14H17V18H21V14H23V10H12.65Z" class="i pk" transform="translate(59.686171875, 48) scale(0.65)"></path><text x="13" y="86" class="tf fk">state_id</text><text x="13" y="111" class="tf">name<tspan x="92.36" class="ty">string</tspan></text></svg><svg width="136.02" height="125" x="-250.01" y="179.44" id="h1416103745" class="t"><rect height="40" width="136.02" class="th"></rect><text x="13" y="25" class="tht">State</text><rect height="85" width="136.02" class="t-bg"></rect><text x="13" y="61" class="tf pk">id<tspan x="123.02000000000001" class="ty">int</tspan></text><path d="M7,14A2,2 0 0,1 5,12A2,2 0 0,1 7,10A2,2 0 0,1 9,12A2,2 0 0,1 7,14M12.65,10C11.83,7.67 9.61,6 7, 6A6, 6 0 0, 0 1, 12A6, 6 0 0, 0 7, 18C9.61, 18 11.83, 16.33 12.65, 14H17V18H21V14H23V10H12.65Z" class="i pk" transform="translate(90.34617187500001, 48) scale(0.65)"></path><text x="13" y="86" class="tf">name<tspan x="123.02000000000001" class="ty">string</tspan></text><text x="13" y="111" class="tf">acronym<tspan x="123.02000000000001" class="ty">string(2)</tspan></text></svg><svg width="153.41" height="300" x="254.4" y="347.73" id="h1446055005" class="t"><rect height="40" width="153.41" class="th"></rect><text x="13" y="25" class="tht">Address</text><rect height="260" width="153.41" class="t-bg"></rect><text x="13" y="61" class="tf pk">id<tspan x="140.41" class="ty">int</tspan></text><path d="M7,14A2,2 0 0,1 5,12A2,2 0 0,1 7,10A2,2 0 0,1 9,12A2,2 0 0,1 7,14M12.65,10C11.83,7.67 9.61,6 7, 6A6, 6 0 0, 0 1, 12A6, 6 0 0, 0 7, 18C9.61, 18 11.83, 16.33 12.65, 14H17V18H21V14H23V10H12.65Z" class="i pk" transform="translate(107.736171875, 48) scale(0.65)"></path><text x="13" y="86" class="tf fk">city_id<tspan x="140.41" class="ty">int</tspan></text><text x="13" y="111" class="tf">name<tspan x="140.41" class="ty">string</tspan></text><text x="13" y="136" class="tf">public_place<tspan x="140.41" class="ty">string</tspan></text><text x="13" y="161" class="tf">number<tspan x="140.41" class="ty">string(15)</tspan></text><text x="13" y="186" class="tf">zip_code<tspan x="140.41" class="ty">string(8)</tspan></text><text x="13" y="211" class="tf">reference<tspan x="140.41" class="ty">string</tspan></text><text x="13" y="236" class="tf">complement<tspan x="140.41" class="ty">string</tspan></text><text x="13" y="261" class="tf">addressable_type<tspan x="140.41" class="ty">int</tspan></text><text x="13" y="286" class="tf">addressable_id<tspan x="140.41" class="ty">int</tspan></text></svg><svg width="166.08" height="150" x="-288.39" y="-347.49" id="h3411697842" class="t"><rect height="40" width="166.08" class="th"></rect><text x="13" y="25" class="tht">Telephone</text><rect height="110" width="166.08" class="t-bg"></rect><text x="13" y="61" class="tf pk">id<tspan x="153.08" class="ty">ind</tspan></text><path d="M7,14A2,2 0 0,1 5,12A2,2 0 0,1 7,10A2,2 0 0,1 9,12A2,2 0 0,1 7,14M12.65,10C11.83,7.67 9.61,6 7, 6A6, 6 0 0, 0 1, 12A6, 6 0 0, 0 7, 18C9.61, 18 11.83, 16.33 12.65, 14H17V18H21V14H23V10H12.65Z" class="i pk" transform="translate(117.06632812500001, 48) scale(0.65)"></path><text x="13" y="86" class="tf">number<tspan x="153.08" class="ty">string(11)</tspan></text><text x="13" y="111" class="tf">contactable_type<tspan x="153.08" class="ty">string</tspan></text><text x="13" y="136" class="tf">contactable_id<tspan x="153.08" class="ty">int</tspan></text></svg><svg width="127.8" height="175" x="-256.91" y="-129.03" id="h1537667952" class="t"><rect height="40" width="127.8" class="th"></rect><text x="13" y="25" class="tht">User</text><rect height="135" width="127.8" class="t-bg"></rect><text x="13" y="61" class="tf pk">id<tspan x="114.8" class="ty">int</tspan></text><path d="M7,14A2,2 0 0,1 5,12A2,2 0 0,1 7,10A2,2 0 0,1 9,12A2,2 0 0,1 7,14M12.65,10C11.83,7.67 9.61,6 7, 6A6, 6 0 0, 0 1, 12A6, 6 0 0, 0 7, 18C9.61, 18 11.83, 16.33 12.65, 14H17V18H21V14H23V10H12.65Z" class="i pk" transform="translate(82.126171875, 48) scale(0.65)"></path><text x="13" y="86" class="tf">name<tspan x="114.8" class="ty">string</tspan></text><text x="13" y="111" class="tf">cpf<tspan x="114.8" class="ty">string(11)</tspan></text><path d="M22,18V22H18V19H15V16H12L9.74,13.74C9.19,13.91 8.61,14 8,14A6,6 0 0,1 2,8A6,6 0 0,1 8,2A6,6 0 0,1 14,8C14,8.61 13.91, 9.19 13.74, 9.74L22, 18M7, 5A2, 2 0 0, 0 5, 7A2, 2 0 0, 0 7, 9A2, 2 0 0, 0 9, 7A2, 2 0 0, 0 7, 5Z" class="i uq" transform="translate(49.00703125, 100.5) scale(0.5)"></path><text x="13" y="136" class="tf">email<tspan x="114.8" class="ty">string</tspan></text><path d="M22,18V22H18V19H15V16H12L9.74,13.74C9.19,13.91 8.61,14 8,14A6,6 0 0,1 2,8A6,6 0 0,1 8,2A6,6 0 0,1 14,8C14,8.61 13.91, 9.19 13.74, 9.74L22, 18M7, 5A2, 2 0 0, 0 5, 7A2, 2 0 0, 0 7, 9A2, 2 0 0, 0 9, 7A2, 2 0 0, 0 7, 5Z" class="i uq" transform="translate(69.45625, 125.5) scale(0.5)"></path><text x="13" y="161" class="tf">password<tspan x="114.8" class="ty">string</tspan></text></svg><svg width="108.47" height="100" x="-0.4" y="-288.57" id="h1198131020" class="t"><rect height="40" width="108.47" class="th"></rect><text x="13" y="25" class="tht">Administrator</text><rect height="60" width="108.47" class="t-bg"></rect><text x="13" y="61" class="tf pk">id<tspan x="95.47" class="ty">int</tspan></text><path d="M7,14A2,2 0 0,1 5,12A2,2 0 0,1 7,10A2,2 0 0,1 9,12A2,2 0 0,1 7,14M12.65,10C11.83,7.67 9.61,6 7, 6A6, 6 0 0, 0 1, 12A6, 6 0 0, 0 7, 18C9.61, 18 11.83, 16.33 12.65, 14H17V18H21V14H23V10H12.65Z" class="i pk" transform="translate(62.796171875, 48) scale(0.65)"></path><text x="13" y="86" class="tf fk">user_id<tspan x="95.47" class="ty">int</tspan></text></svg><svg width="117.38" height="150" x="-1.82" y="22.4" id="h337817588" class="t"><rect height="40" width="117.38" class="th"></rect><text x="13" y="25" class="tht">Custumer</text><rect height="110" width="117.38" class="t-bg"></rect><text x="13" y="61" class="tf pk">id<tspan x="104.38" class="ty">int</tspan></text><path d="M7,14A2,2 0 0,1 5,12A2,2 0 0,1 7,10A2,2 0 0,1 9,12A2,2 0 0,1 7,14M12.65,10C11.83,7.67 9.61,6 7, 6A6, 6 0 0, 0 1, 12A6, 6 0 0, 0 7, 18C9.61, 18 11.83, 16.33 12.65, 14H17V18H21V14H23V10H12.65Z" class="i pk" transform="translate(71.706171875, 48) scale(0.65)"></path><text x="13" y="86" class="tf fk">user_id<tspan x="104.38" class="ty">int</tspan></text><text x="13" y="111" class="tf fk">address_id<tspan x="104.38" class="ty">int</tspan></text><text x="13" y="136" class="tf">birthday<tspan x="104.38" class="ty">date</tspan></text></svg><svg width="122.05" height="150" x="-10.14" y="-154.44" id="h1690872519" class="t"><rect height="40" width="122.05" class="th"></rect><text x="13" y="25" class="tht">Chef</text><rect height="110" width="122.05" class="t-bg"></rect><text x="13" y="61" class="tf pk">id<tspan x="109.05" class="ty">int</tspan></text><path d="M7,14A2,2 0 0,1 5,12A2,2 0 0,1 7,10A2,2 0 0,1 9,12A2,2 0 0,1 7,14M12.65,10C11.83,7.67 9.61,6 7, 6A6, 6 0 0, 0 1, 12A6, 6 0 0, 0 7, 18C9.61, 18 11.83, 16.33 12.65, 14H17V18H21V14H23V10H12.65Z" class="i pk" transform="translate(76.376171875, 48) scale(0.65)"></path><text x="13" y="86" class="tf fk">user_id<tspan x="109.05" class="ty">int</tspan></text><text x="13" y="111" class="tf fk">address_id<tspan x="109.05" class="ty">int</tspan></text><text x="13" y="136" class="tf fk">approver_id<tspan x="109.05" class="ty">int</tspan></text></svg><svg width="120.71" height="125" x="-8.04" y="-502.98" id="h1288702697" class="t"><rect height="40" width="120.71" class="th"></rect><text x="13" y="25" class="tht">CategoryDish</text><rect height="85" width="120.71" class="t-bg"></rect><text x="13" y="61" class="tf pk">id<tspan x="107.71" class="ty">int</tspan></text><path d="M7,14A2,2 0 0,1 5,12A2,2 0 0,1 7,10A2,2 0 0,1 9,12A2,2 0 0,1 7,14M12.65,10C11.83,7.67 9.61,6 7, 6A6, 6 0 0, 0 1, 12A6, 6 0 0, 0 7, 18C9.61, 18 11.83, 16.33 12.65, 14H17V18H21V14H23V10H12.65Z" class="i pk" transform="translate(75.036171875, 48) scale(0.65)"></path><text x="13" y="86" class="tf fk">category_id<tspan x="107.71" class="ty">int</tspan></text><text x="13" y="111" class="tf fk">dish_id<tspan x="107.71" class="ty">int</tspan></text></svg><svg width="105.36" height="100" x="-218.93" y="-499.47" id="h1903237708" class="t"><rect height="40" width="105.36" class="th"></rect><text x="13" y="25" class="tht">Category</text><rect height="60" width="105.36" class="t-bg"></rect><text x="13" y="61" class="tf pk">id<tspan x="92.36" class="ty">int</tspan></text><path d="M7,14A2,2 0 0,1 5,12A2,2 0 0,1 7,10A2,2 0 0,1 9,12A2,2 0 0,1 7,14M12.65,10C11.83,7.67 9.61,6 7, 6A6, 6 0 0, 0 1, 12A6, 6 0 0, 0 7, 18C9.61, 18 11.83, 16.33 12.65, 14H17V18H21V14H23V10H12.65Z" class="i pk" transform="translate(59.686171875, 48) scale(0.65)"></path><text x="13" y="86" class="tf">name<tspan x="92.36" class="ty">string</tspan></text></svg><svg width="139.38" height="225" x="258.47" y="-498.78" id="h3142815653" class="t"><rect height="40" width="139.38" class="th"></rect><text x="13" y="25" class="tht">Dish</text><rect height="185" width="139.38" class="t-bg"></rect><text x="13" y="61" class="tf pk">id<tspan x="126.38" class="ty">int</tspan></text><path d="M7,14A2,2 0 0,1 5,12A2,2 0 0,1 7,10A2,2 0 0,1 9,12A2,2 0 0,1 7,14M12.65,10C11.83,7.67 9.61,6 7, 6A6, 6 0 0, 0 1, 12A6, 6 0 0, 0 7, 18C9.61, 18 11.83, 16.33 12.65, 14H17V18H21V14H23V10H12.65Z" class="i pk" transform="translate(93.706171875, 48) scale(0.65)"></path><text x="13" y="86" class="tf fk">chef_id<tspan x="126.38" class="ty">int</tspan></text><text x="13" y="111" class="tf">name<tspan x="126.38" class="ty">string</tspan></text><text x="13" y="136" class="tf">description<tspan x="126.38" class="ty">string</tspan></text><text x="13" y="161" class="tf">available<tspan x="126.38" class="ty">boolean</tspan></text><text x="13" y="186" class="tf">active<tspan x="126.38" class="ty">boolean</tspan></text><text x="13" y="211" class="tf">unit_price<tspan x="126.38" class="ty">decimal</tspan></text></svg><svg width="165.4" height="200" x="246.72" y="118.93" id="h4176899315" class="t"><rect height="40" width="165.4" class="th"></rect><text x="13" y="25" class="tht">Order</text><rect height="160" width="165.4" class="t-bg"></rect><text x="13" y="61" class="tf pk">id<tspan x="152.4" class="ty">int</tspan></text><path d="M7,14A2,2 0 0,1 5,12A2,2 0 0,1 7,10A2,2 0 0,1 9,12A2,2 0 0,1 7,14M12.65,10C11.83,7.67 9.61,6 7, 6A6, 6 0 0, 0 1, 12A6, 6 0 0, 0 7, 18C9.61, 18 11.83, 16.33 12.65, 14H17V18H21V14H23V10H12.65Z" class="i pk" transform="translate(119.726171875, 48) scale(0.65)"></path><text x="13" y="86" class="tf fk">custumer_id<tspan x="152.4" class="ty">int</tspan></text><text x="13" y="111" class="tf fk">delivery_address_id<tspan x="152.4" class="ty">int</tspan></text><text x="13" y="136" class="tf">status<tspan x="152.4" class="ty">enum</tspan></text><text x="13" y="161" class="tf">total_price<tspan x="152.4" class="ty">decimal</tspan></text><text x="13" y="186" class="tf">delivery_price<tspan x="152.4" class="ty">decimal</tspan></text></svg><svg width="113.37" height="175" x="512.11" y="-500.73" id="h127940912" class="t"><rect height="40" width="113.37" class="th"></rect><text x="13" y="25" class="tht">OrderItems</text><rect height="135" width="113.37" class="t-bg"></rect><text x="13" y="61" class="tf pk">id<tspan x="100.37" class="ty">int</tspan></text><path d="M7,14A2,2 0 0,1 5,12A2,2 0 0,1 7,10A2,2 0 0,1 9,12A2,2 0 0,1 7,14M12.65,10C11.83,7.67 9.61,6 7, 6A6, 6 0 0, 0 1, 12A6, 6 0 0, 0 7, 18C9.61, 18 11.83, 16.33 12.65, 14H17V18H21V14H23V10H12.65Z" class="i pk" transform="translate(67.696171875, 48) scale(0.65)"></path><text x="13" y="86" class="tf fk">dish_id<tspan x="100.37" class="ty">int</tspan></text><text x="13" y="111" class="tf fk">order_id<tspan x="100.37" class="ty">int</tspan></text><text x="13" y="136" class="tf">amount<tspan x="100.37" class="ty">int</tspan></text><text x="13" y="161" class="tf">unit_price<tspan x="100.37" class="ty">iint</tspan></text></svg><svg width="168.74" height="175" x="518.71" y="189.08" id="h79873455" class="t"><rect height="40" width="168.74" class="th"></rect><text x="13" y="25" class="tht">Payment</text><rect height="135" width="168.74" class="t-bg"></rect><text x="13" y="61" class="tf pk">id<tspan x="155.74" class="ty">int</tspan></text><path d="M7,14A2,2 0 0,1 5,12A2,2 0 0,1 7,10A2,2 0 0,1 9,12A2,2 0 0,1 7,14M12.65,10C11.83,7.67 9.61,6 7, 6A6, 6 0 0, 0 1, 12A6, 6 0 0, 0 7, 18C9.61, 18 11.83, 16.33 12.65, 14H17V18H21V14H23V10H12.65Z" class="i pk" transform="translate(123.06617187500001, 48) scale(0.65)"></path><text x="13" y="86" class="tf fk">card_id<tspan x="155.74" class="ty">int</tspan></text><text x="13" y="111" class="tf">amount_paid<tspan x="155.74" class="ty">decimal</tspan></text><text x="13" y="136" class="tf">status<tspan x="155.74" class="ty">enum</tspan></text><text x="13" y="161" class="tf">payment_method<tspan x="155.74" class="ty">enum</tspan></text></svg><svg width="164.05" height="225" x="247.03" y="-180.65" id="h2005470065" class="t"><rect height="40" width="164.05" class="th"></rect><text x="13" y="25" class="tht">Card</text><rect height="185" width="164.05" class="t-bg"></rect><text x="13" y="61" class="tf pk">id<tspan x="151.05" class="ty">int</tspan></text><path d="M7,14A2,2 0 0,1 5,12A2,2 0 0,1 7,10A2,2 0 0,1 9,12A2,2 0 0,1 7,14M12.65,10C11.83,7.67 9.61,6 7, 6A6, 6 0 0, 0 1, 12A6, 6 0 0, 0 7, 18C9.61, 18 11.83, 16.33 12.65, 14H17V18H21V14H23V10H12.65Z" class="i pk" transform="translate(118.37617187500001, 48) scale(0.65)"></path><text x="13" y="86" class="tf fk">custumer_id<tspan x="151.05" class="ty">int</tspan></text><text x="13" y="111" class="tf">number<tspan x="151.05" class="ty">string(16)</tspan></text><text x="13" y="136" class="tf">name<tspan x="151.05" class="ty">string</tspan></text><text x="13" y="161" class="tf">security_code<tspan x="151.05" class="ty">string(3)</tspan></text><text x="13" y="186" class="tf">type_card<tspan x="151.05" class="ty">enum</tspan></text><text x="13" y="211" class="tf">expiration_date<tspan x="151.05" class="ty">date</tspan></text></svg><svg width="166.08" height="250" x="514.24" y="-308.34" id="h1907095664" class="t"><rect height="40" width="166.08" class="th"></rect><text x="13" y="25" class="tht">Coupon</text><rect height="210" width="166.08" class="t-bg"></rect><text x="13" y="61" class="tf pk">id<tspan x="153.08" class="ty">int</tspan></text><path d="M7,14A2,2 0 0,1 5,12A2,2 0 0,1 7,10A2,2 0 0,1 9,12A2,2 0 0,1 7,14M12.65,10C11.83,7.67 9.61,6 7, 6A6, 6 0 0, 0 1, 12A6, 6 0 0, 0 7, 18C9.61, 18 11.83, 16.33 12.65, 14H17V18H21V14H23V10H12.65Z" class="i pk" transform="translate(120.40617187500001, 48) scale(0.65)"></path><text x="13" y="86" class="tf fk">custumer_id<tspan x="153.08" class="ty">int</tspan></text><text x="13" y="111" class="tf">coupon_code<tspan x="153.08" class="ty">string</tspan></text><path d="M22,18V22H18V19H15V16H12L9.74,13.74C9.19,13.91 8.61,14 8,14A6,6 0 0,1 2,8A6,6 0 0,1 8,2A6,6 0 0,1 14,8C14,8.61 13.91, 9.19 13.74, 9.74L22, 18M7, 5A2, 2 0 0, 0 5, 7A2, 2 0 0, 0 7, 9A2, 2 0 0, 0 9, 7A2, 2 0 0, 0 7, 5Z" class="i uq" transform="translate(107.73625000000001, 100.5) scale(0.5)"></path><text x="13" y="136" class="tf">name<tspan x="153.08" class="ty">string</tspan></text><text x="13" y="161" class="tf">description<tspan x="153.08" class="ty">string</tspan></text><text x="13" y="186" class="tf">date_start_validity<tspan x="153.08" class="ty">date</tspan></text><text x="13" y="211" class="tf">date_end_validity<tspan x="153.08" class="ty">date</tspan></text><text x="13" y="236" class="tf">total_discount<tspan x="153.08" class="ty">decimal</tspan></text></svg><svg width="124.04" height="175" x="565.3" y="-31.57" id="h1550796445" class="t"><rect height="40" width="124.04" class="th"></rect><text x="13" y="25" class="tht">OrderPayment</text><rect height="135" width="124.04" class="t-bg"></rect><text x="13" y="61" class="tf pk">id<tspan x="111.04" class="ty">int</tspan></text><path d="M7,14A2,2 0 0,1 5,12A2,2 0 0,1 7,10A2,2 0 0,1 9,12A2,2 0 0,1 7,14M12.65,10C11.83,7.67 9.61,6 7, 6A6, 6 0 0, 0 1, 12A6, 6 0 0, 0 7, 18C9.61, 18 11.83, 16.33 12.65, 14H17V18H21V14H23V10H12.65Z" class="i pk" transform="translate(78.366171875, 48) scale(0.65)"></path><text x="13" y="86" class="tf fk">order_id<tspan x="111.04" class="ty">int</tspan></text><text x="13" y="111" class="tf fk">payment_id<tspan x="111.04" class="ty">int</tspan></text><text x="13" y="136" class="tf fk">custumer_id<tspan x="111.04" class="ty">int</tspan></text><text x="13" y="161" class="tf fk">coupon_id<tspan x="111.04" class="ty">int</tspan></text></svg></g></g></svg>